<?xml version="1.0" encoding="utf-8" ?><!-- created by svgstack.com | Attribution is required. --><svg xmlns="http://www.w3.org/2000/svg" xmlns:xlink="http://www.w3.org/1999/xlink" width="1024" height="1024"><defs><linearGradient id="gradient_0" gradientUnits="userSpaceOnUse" x1="282.87024" y1="458.69324" x2="240.16614" y2="65.084579"><stop offset="0" stop-color="#1165E2"/><stop offset="1" stop-color="#0B9EF9"/></linearGradient></defs><path fill="url(#gradient_0)" transform="scale(2 2)" d="M253.171 63.998C259.503 63.5936 265.928 64.1002 272.22 64.8456C332.293 71.9628 379.518 115.641 395.061 173.725C405.125 211.337 397.395 252.502 378.04 285.846C372.938 294.635 367.268 303.328 361.735 311.848L270.431 450.904C267.079 455.991 265.004 460.162 258.689 461.838L258.349 461.901C248.207 463.856 243.929 454.173 239.317 447.038C211.745 404.383 182.921 362.758 155.713 319.744C144.858 302.584 132.572 285.888 124.373 267.223C83.8105 174.88 152.72 64.0504 253.171 63.998ZM253.171 127.886C208.587 129.547 174.105 166.255 175.79 211.005C177.462 255.402 215.654 288.593 259.616 287.307C302.393 286.56 336.766 248.163 336.134 206.125C335.469 161.863 297.465 125.958 253.171 127.886Z"/><path fill="#F2C4CD" transform="scale(2 2)" d="M249.96 161.249C262.12 161.059 271.301 161.689 281.865 168.579C318.072 192.198 307.367 245.101 262.311 254.734C250.158 254.596 240.345 254.159 229.89 246.962C194.549 222.634 205.921 168.757 249.96 161.249Z"/></svg> 